<?xml version="1.0" encoding="UTF-8" standalone="no"?>
<!DOCTYPE svg PUBLIC "-//W3C//DTD SVG 1.1//EN"
 "http://www.w3.org/Graphics/SVG/1.1/DTD/svg11.dtd">
<!-- Generated by graphviz version 2.38.0 (20140413.2041)
 -->
<!-- Title: controllers_diagram Pages: 1 -->
<svg width="419pt" height="339pt"
 viewBox="0.00 0.00 419.39 339.00" xmlns="http://www.w3.org/2000/svg" xmlns:xlink="http://www.w3.org/1999/xlink">
<g id="graph0" class="graph" transform="scale(1 1) rotate(0) translate(71.707 233.5)">
<title>controllers_diagram</title>
<polygon fill="none" stroke="none" points="-71.707,105.5 -71.707,-233.5 347.688,-233.5 347.688,105.5 -71.707,105.5"/>
<!-- _diagram_info -->
<g id="node1" class="node"><title>_diagram_info</title>
<text text-anchor="start" x="144.312" y="-195.1" font-family="Times,serif" font-size="13.00">Controllers diagram</text>
<text text-anchor="start" x="144.312" y="-182.1" font-family="Times,serif" font-size="13.00">Date: May 07 2016 &#45; 16:45</text>
<text text-anchor="start" x="144.312" y="-169.1" font-family="Times,serif" font-size="13.00">Migration version: 20160507170847</text>
<text text-anchor="start" x="144.312" y="-156.1" font-family="Times,serif" font-size="13.00">Generated by RailRoady 1.4.2</text>
<text text-anchor="start" x="144.312" y="-143.1" font-family="Times,serif" font-size="13.00">http://railroady.prestonlee.com</text>
</g>
<!-- ApplicationController -->
<g id="node2" class="node"><title>ApplicationController</title>
<path fill="none" stroke="black" d="M-21.8208,-137C-21.8208,-137 93.8208,-137 93.8208,-137 99.8208,-137 105.821,-143 105.821,-149 105.821,-149 105.821,-217 105.821,-217 105.821,-223 99.8208,-229 93.8208,-229 93.8208,-229 -21.8208,-229 -21.8208,-229 -27.8208,-229 -33.8208,-223 -33.8208,-217 -33.8208,-217 -33.8208,-149 -33.8208,-149 -33.8208,-143 -27.8208,-137 -21.8208,-137"/>
<text text-anchor="middle" x="36" y="-213.8" font-family="Times,serif" font-size="14.00">ApplicationController</text>
<polyline fill="none" stroke="black" points="-33.8208,-207 105.821,-207 "/>
<polyline fill="none" stroke="black" points="-33.8208,-183 105.821,-183 "/>
<polyline fill="none" stroke="black" points="-33.8208,-159 105.821,-159 "/>
<text text-anchor="start" x="-25.8208" y="-143.8" font-family="Times,serif" font-size="14.00">_layout</text>
</g>
<!-- CategoriesController -->
<g id="node3" class="node"><title>CategoriesController</title>
<path fill="none" stroke="black" d="M-55.707,101C-55.707,101 53.707,101 53.707,101 59.707,101 65.707,95 65.707,89 65.707,89 65.707,-89 65.707,-89 65.707,-95 59.707,-101 53.707,-101 53.707,-101 -55.707,-101 -55.707,-101 -61.707,-101 -67.707,-95 -67.707,-89 -67.707,-89 -67.707,89 -67.707,89 -67.707,95 -61.707,101 -55.707,101"/>
<text text-anchor="middle" x="-1" y="-85.8" font-family="Times,serif" font-size="14.00">CategoriesController</text>
<polyline fill="none" stroke="black" points="-67.707,-79 65.707,-79 "/>
<text text-anchor="start" x="-59.707" y="-63.8" font-family="Times,serif" font-size="14.00">create</text>
<text text-anchor="start" x="-59.707" y="-49.8" font-family="Times,serif" font-size="14.00">destroy</text>
<text text-anchor="start" x="-59.707" y="-35.8" font-family="Times,serif" font-size="14.00">edit</text>
<text text-anchor="start" x="-59.707" y="-21.8" font-family="Times,serif" font-size="14.00">index</text>
<text text-anchor="start" x="-59.707" y="-7.8" font-family="Times,serif" font-size="14.00">new</text>
<text text-anchor="start" x="-59.707" y="6.2" font-family="Times,serif" font-size="14.00">show</text>
<text text-anchor="start" x="-59.707" y="20.2" font-family="Times,serif" font-size="14.00">update</text>
<polyline fill="none" stroke="black" points="-67.707,27 65.707,27 "/>
<polyline fill="none" stroke="black" points="-67.707,51 65.707,51 "/>
<text text-anchor="start" x="-59.707" y="66.2" font-family="Times,serif" font-size="14.00">_layout</text>
<text text-anchor="start" x="-59.707" y="80.2" font-family="Times,serif" font-size="14.00">category_params</text>
<text text-anchor="start" x="-59.707" y="94.2" font-family="Times,serif" font-size="14.00">set_category</text>
</g>
<!-- LeadsController -->
<g id="node4" class="node"><title>LeadsController</title>
<path fill="none" stroke="black" d="M113.514,101C113.514,101 196.486,101 196.486,101 202.486,101 208.486,95 208.486,89 208.486,89 208.486,-89 208.486,-89 208.486,-95 202.486,-101 196.486,-101 196.486,-101 113.514,-101 113.514,-101 107.514,-101 101.514,-95 101.514,-89 101.514,-89 101.514,89 101.514,89 101.514,95 107.514,101 113.514,101"/>
<text text-anchor="middle" x="155" y="-85.8" font-family="Times,serif" font-size="14.00">LeadsController</text>
<polyline fill="none" stroke="black" points="101.514,-79 208.486,-79 "/>
<text text-anchor="start" x="109.514" y="-63.8" font-family="Times,serif" font-size="14.00">create</text>
<text text-anchor="start" x="109.514" y="-49.8" font-family="Times,serif" font-size="14.00">destroy</text>
<text text-anchor="start" x="109.514" y="-35.8" font-family="Times,serif" font-size="14.00">edit</text>
<text text-anchor="start" x="109.514" y="-21.8" font-family="Times,serif" font-size="14.00">index</text>
<text text-anchor="start" x="109.514" y="-7.8" font-family="Times,serif" font-size="14.00">new</text>
<text text-anchor="start" x="109.514" y="6.2" font-family="Times,serif" font-size="14.00">show</text>
<text text-anchor="start" x="109.514" y="20.2" font-family="Times,serif" font-size="14.00">update</text>
<polyline fill="none" stroke="black" points="101.514,27 208.486,27 "/>
<polyline fill="none" stroke="black" points="101.514,51 208.486,51 "/>
<text text-anchor="start" x="109.514" y="66.2" font-family="Times,serif" font-size="14.00">_layout</text>
<text text-anchor="start" x="109.514" y="80.2" font-family="Times,serif" font-size="14.00">lead_params</text>
<text text-anchor="start" x="109.514" y="94.2" font-family="Times,serif" font-size="14.00">set_lead</text>
</g>
</g>
</svg>
