<?xml version="1.0" encoding="UTF-8" standalone="no"?>
<!DOCTYPE svg PUBLIC "-//W3C//DTD SVG 1.1//EN"
 "http://www.w3.org/Graphics/SVG/1.1/DTD/svg11.dtd">
<!-- Generated by graphviz version 2.38.0 (20140413.2041)
 -->
<!-- Title: models_diagram Pages: 1 -->
<svg width="482pt" height="467pt"
 viewBox="0.00 0.00 481.55 467.00" xmlns="http://www.w3.org/2000/svg" xmlns:xlink="http://www.w3.org/1999/xlink">
<g id="graph0" class="graph" transform="scale(1 1) rotate(0) translate(4 463)">
<title>models_diagram</title>
<polygon fill="none" stroke="none" points="-4,4 -4,-463 477.55,-463 477.55,4 -4,4"/>
<!-- _diagram_info -->
<g id="node1" class="node"><title>_diagram_info</title>
<text text-anchor="start" x="8" y="-437.6" font-family="Times,serif" font-size="13.00">Models diagram</text>
<text text-anchor="start" x="8" y="-424.6" font-family="Times,serif" font-size="13.00">Date: May 07 2016 &#45; 16:45</text>
<text text-anchor="start" x="8" y="-411.6" font-family="Times,serif" font-size="13.00">Migration version: 20160507170847</text>
<text text-anchor="start" x="8" y="-398.6" font-family="Times,serif" font-size="13.00">Generated by RailRoady 1.4.2</text>
<text text-anchor="start" x="8" y="-385.6" font-family="Times,serif" font-size="13.00">http://railroady.prestonlee.com</text>
</g>
<!-- Category -->
<g id="node2" class="node"><title>Category</title>
<path fill="none" stroke="black" d="M237.825,-372.5C237.825,-372.5 461.55,-372.5 461.55,-372.5 467.55,-372.5 473.55,-378.5 473.55,-384.5 473.55,-384.5 473.55,-446.5 473.55,-446.5 473.55,-452.5 467.55,-458.5 461.55,-458.5 461.55,-458.5 237.825,-458.5 237.825,-458.5 231.825,-458.5 225.825,-452.5 225.825,-446.5 225.825,-446.5 225.825,-384.5 225.825,-384.5 225.825,-378.5 231.825,-372.5 237.825,-372.5"/>
<text text-anchor="middle" x="349.688" y="-443.3" font-family="Times,serif" font-size="14.00">Category</text>
<polyline fill="none" stroke="black" points="225.825,-436.5 473.55,-436.5 "/>
<text text-anchor="start" x="233.825" y="-421.3" font-family="Times,serif" font-size="14.00">id :integer</text>
<text text-anchor="start" x="233.825" y="-407.3" font-family="Times,serif" font-size="14.00">type :character varying</text>
<text text-anchor="start" x="233.825" y="-393.3" font-family="Times,serif" font-size="14.00">created_at :timestamp without time zone</text>
<text text-anchor="start" x="233.825" y="-379.3" font-family="Times,serif" font-size="14.00">updated_at :timestamp without time zone</text>
</g>
<!-- Email -->
<g id="node3" class="node"><title>Email</title>
<path fill="none" stroke="black" d="M237.825,-249.5C237.825,-249.5 461.55,-249.5 461.55,-249.5 467.55,-249.5 473.55,-255.5 473.55,-261.5 473.55,-261.5 473.55,-323.5 473.55,-323.5 473.55,-329.5 467.55,-335.5 461.55,-335.5 461.55,-335.5 237.825,-335.5 237.825,-335.5 231.825,-335.5 225.825,-329.5 225.825,-323.5 225.825,-323.5 225.825,-261.5 225.825,-261.5 225.825,-255.5 231.825,-249.5 237.825,-249.5"/>
<text text-anchor="middle" x="349.688" y="-320.3" font-family="Times,serif" font-size="14.00">Email</text>
<polyline fill="none" stroke="black" points="225.825,-313.5 473.55,-313.5 "/>
<text text-anchor="start" x="233.825" y="-298.3" font-family="Times,serif" font-size="14.00">id :integer</text>
<text text-anchor="start" x="233.825" y="-284.3" font-family="Times,serif" font-size="14.00">type :character varying</text>
<text text-anchor="start" x="233.825" y="-270.3" font-family="Times,serif" font-size="14.00">created_at :timestamp without time zone</text>
<text text-anchor="start" x="233.825" y="-256.3" font-family="Times,serif" font-size="14.00">updated_at :timestamp without time zone</text>
</g>
<!-- Category&#45;&gt;Email -->
<g id="edge1" class="edge"><title>Category&#45;&gt;Email</title>
<path fill="none" stroke="#9dbc9c" d="M349.688,-363.986C349.688,-357.933 349.688,-351.742 349.688,-345.665"/>
<ellipse fill="none" stroke="#9dbc9c" cx="349.688" cy="-368.18" rx="4" ry="4"/>
<polygon fill="#9dbc9c" stroke="#9dbc9c" points="349.688,-345.592 354.188,-335.592 349.688,-340.592 349.688,-335.592 349.688,-335.592 349.688,-335.592 349.688,-340.592 345.188,-335.592 349.688,-345.592 349.688,-345.592"/>
</g>
<!-- Lead -->
<g id="node4" class="node"><title>Lead</title>
<path fill="none" stroke="black" d="M237.825,-0.5C237.825,-0.5 461.55,-0.5 461.55,-0.5 467.55,-0.5 473.55,-6.5 473.55,-12.5 473.55,-12.5 473.55,-200.5 473.55,-200.5 473.55,-206.5 467.55,-212.5 461.55,-212.5 461.55,-212.5 237.825,-212.5 237.825,-212.5 231.825,-212.5 225.825,-206.5 225.825,-200.5 225.825,-200.5 225.825,-12.5 225.825,-12.5 225.825,-6.5 231.825,-0.5 237.825,-0.5"/>
<text text-anchor="middle" x="349.688" y="-197.3" font-family="Times,serif" font-size="14.00">Lead</text>
<polyline fill="none" stroke="black" points="225.825,-190.5 473.55,-190.5 "/>
<text text-anchor="start" x="233.825" y="-175.3" font-family="Times,serif" font-size="14.00">id :integer</text>
<text text-anchor="start" x="233.825" y="-161.3" font-family="Times,serif" font-size="14.00">email :character varying</text>
<text text-anchor="start" x="233.825" y="-147.3" font-family="Times,serif" font-size="14.00">name :character varying</text>
<text text-anchor="start" x="233.825" y="-133.3" font-family="Times,serif" font-size="14.00">lastname :character varying</text>
<text text-anchor="start" x="233.825" y="-119.3" font-family="Times,serif" font-size="14.00">company :character varying</text>
<text text-anchor="start" x="233.825" y="-105.3" font-family="Times,serif" font-size="14.00">role :character varying</text>
<text text-anchor="start" x="233.825" y="-91.3" font-family="Times,serif" font-size="14.00">area :character varying</text>
<text text-anchor="start" x="233.825" y="-77.3" font-family="Times,serif" font-size="14.00">industry :character varying</text>
<text text-anchor="start" x="233.825" y="-63.3" font-family="Times,serif" font-size="14.00">phone :integer</text>
<text text-anchor="start" x="233.825" y="-49.3" font-family="Times,serif" font-size="14.00">module :character varying</text>
<text text-anchor="start" x="233.825" y="-35.3" font-family="Times,serif" font-size="14.00">status :character varying</text>
<text text-anchor="start" x="233.825" y="-21.3" font-family="Times,serif" font-size="14.00">created_at :timestamp without time zone</text>
<text text-anchor="start" x="233.825" y="-7.3" font-family="Times,serif" font-size="14.00">updated_at :timestamp without time zone</text>
</g>
<!-- Email&#45;&gt;Lead -->
<g id="edge2" class="edge"><title>Email&#45;&gt;Lead</title>
<path fill="none" stroke="#519ac4" d="M343.597,-241.237C343.398,-235.34 343.243,-229.153 343.134,-222.807"/>
<ellipse fill="none" stroke="#519ac4" cx="343.753" cy="-245.29" rx="4" ry="4"/>
<polygon fill="#519ac4" stroke="#519ac4" points="343.133,-222.723 347.5,-212.664 343.067,-217.724 343,-212.724 343,-212.724 343,-212.724 343.067,-217.724 338.501,-212.784 343.133,-222.723 343.133,-222.723"/>
</g>
<!-- Lead&#45;&gt;Email -->
<g id="edge3" class="edge"><title>Lead&#45;&gt;Email</title>
<path fill="none" stroke="#a28672" d="M356.275,-220.739C356.178,-227.015 356.036,-233.152 355.851,-239.023"/>
<ellipse fill="none" stroke="#a28672" cx="356.325" cy="-216.724" rx="4" ry="4"/>
<polygon fill="#a28672" stroke="#a28672" points="355.841,-239.294 350.972,-249.119 355.655,-244.29 355.469,-249.287 355.469,-249.287 355.469,-249.287 355.655,-244.29 359.966,-249.454 355.841,-239.294 355.841,-239.294"/>
</g>
</g>
</svg>
