<?xml version="1.0" encoding="UTF-8" standalone="no"?>
<!DOCTYPE svg PUBLIC "-//W3C//DTD SVG 1.1//EN"
 "http://www.w3.org/Graphics/SVG/1.1/DTD/svg11.dtd">
<!-- Generated by graphviz version 2.38.0 (20140413.2041)
 -->
<!-- Title: models_diagram Pages: 1 -->
<svg width="318pt" height="225pt"
 viewBox="0.00 0.00 318.21 225.00" xmlns="http://www.w3.org/2000/svg" xmlns:xlink="http://www.w3.org/1999/xlink">
<g id="graph0" class="graph" transform="scale(1 1) rotate(0) translate(4 221)">
<title>models_diagram</title>
<polygon fill="none" stroke="none" points="-4,4 -4,-221 314.211,-221 314.211,4 -4,4"/>
<!-- _diagram_info -->
<g id="node1" class="node"><title>_diagram_info</title>
<text text-anchor="start" x="8" y="-202.6" font-family="Times,serif" font-size="13.00">Models diagram</text>
<text text-anchor="start" x="8" y="-189.6" font-family="Times,serif" font-size="13.00">Date: May 07 2016 &#45; 16:45</text>
<text text-anchor="start" x="8" y="-176.6" font-family="Times,serif" font-size="13.00">Migration version: 20160507170847</text>
<text text-anchor="start" x="8" y="-163.6" font-family="Times,serif" font-size="13.00">Generated by RailRoady 1.4.2</text>
<text text-anchor="start" x="8" y="-150.6" font-family="Times,serif" font-size="13.00">http://railroady.prestonlee.com</text>
</g>
<!-- Category -->
<g id="node2" class="node"><title>Category</title>
<ellipse fill="none" stroke="black" cx="267.688" cy="-180.5" rx="42.5456" ry="18"/>
<text text-anchor="middle" x="267.688" y="-176.3" font-family="Times,serif" font-size="14.00">Category</text>
</g>
<!-- Email -->
<g id="node3" class="node"><title>Email</title>
<ellipse fill="none" stroke="black" cx="267.688" cy="-90" rx="31.4549" ry="18"/>
<text text-anchor="middle" x="267.688" y="-85.8" font-family="Times,serif" font-size="14.00">Email</text>
</g>
<!-- Category&#45;&gt;Email -->
<g id="edge1" class="edge"><title>Category&#45;&gt;Email</title>
<path fill="none" stroke="#0e6e36" d="M267.688,-154.189C267.688,-142.971 267.688,-129.752 267.688,-118.311"/>
<ellipse fill="none" stroke="#0e6e36" cx="267.688" cy="-158.436" rx="4" ry="4"/>
<polygon fill="#0e6e36" stroke="#0e6e36" points="267.688,-118.011 272.188,-108.011 267.688,-113.011 267.688,-108.011 267.688,-108.011 267.688,-108.011 267.688,-113.011 263.188,-108.011 267.688,-118.011 267.688,-118.011"/>
</g>
<!-- Lead -->
<g id="node4" class="node"><title>Lead</title>
<ellipse fill="none" stroke="black" cx="267.688" cy="-18" rx="27.5633" ry="18"/>
<text text-anchor="middle" x="267.688" y="-13.8" font-family="Times,serif" font-size="14.00">Lead</text>
</g>
<!-- Email&#45;&gt;Lead -->
<g id="edge2" class="edge"><title>Email&#45;&gt;Lead</title>
<path fill="none" stroke="#b00889" d="M261.182,-63.8609C260.886,-58.032 260.859,-51.8058 261.101,-45.9045"/>
<ellipse fill="none" stroke="#b00889" cx="261.504" cy="-68.0666" rx="4" ry="4"/>
<polygon fill="#b00889" stroke="#b00889" points="261.111,-45.7634 266.315,-36.1109 261.469,-40.7762 261.826,-35.789 261.826,-35.789 261.826,-35.789 261.469,-40.7762 257.338,-35.4671 261.111,-45.7634 261.111,-45.7634"/>
</g>
<!-- Lead&#45;&gt;Email -->
<g id="edge3" class="edge"><title>Lead&#45;&gt;Email</title>
<path fill="none" stroke="#782ca5" d="M274.183,-43.9262C274.484,-49.7349 274.518,-55.9482 274.285,-61.8479"/>
<ellipse fill="none" stroke="#782ca5" cx="273.86" cy="-39.7769" rx="4" ry="4"/>
<polygon fill="#782ca5" stroke="#782ca5" points="274.268,-62.0796 269.077,-71.7389 273.917,-67.0673 273.566,-72.055 273.566,-72.055 273.566,-72.055 273.917,-67.0673 278.055,-72.371 274.268,-62.0796 274.268,-62.0796"/>
</g>
</g>
</svg>
